<mxfile host="app.diagrams.net" modified="2024-07-07T04:28:56.808Z" agent="Mozilla/5.0 (Windows NT 10.0; Win64; x64) AppleWebKit/537.36 (KHTML, like Gecko) Chrome/126.0.0.0 Safari/537.36 Edg/126.0.0.0" etag="yzQl_ybVsK8xqwWT0kot" version="24.6.4" type="github">
  <diagram name="Страница — 1" id="QjS5NX7IUF1SA72Ve2tU">
    <mxGraphModel dx="1386" dy="785" grid="1" gridSize="10" guides="1" tooltips="1" connect="1" arrows="1" fold="1" page="1" pageScale="1" pageWidth="827" pageHeight="1169" math="0" shadow="0">
      <root>
        <mxCell id="0" />
        <mxCell id="1" parent="0" />
        <mxCell id="OvPy3r0spWOH9IC-nQ0_-31" value="" style="edgeStyle=orthogonalEdgeStyle;rounded=0;orthogonalLoop=1;jettySize=auto;html=1;" edge="1" parent="1" source="OvPy3r0spWOH9IC-nQ0_-1" target="OvPy3r0spWOH9IC-nQ0_-6">
          <mxGeometry relative="1" as="geometry" />
        </mxCell>
        <mxCell id="OvPy3r0spWOH9IC-nQ0_-1" value="Начало" style="ellipse;whiteSpace=wrap;html=1;" vertex="1" parent="1">
          <mxGeometry x="300" y="150" width="120" height="80" as="geometry" />
        </mxCell>
        <mxCell id="OvPy3r0spWOH9IC-nQ0_-35" value="" style="edgeStyle=orthogonalEdgeStyle;rounded=0;orthogonalLoop=1;jettySize=auto;html=1;" edge="1" parent="1" source="OvPy3r0spWOH9IC-nQ0_-4" target="OvPy3r0spWOH9IC-nQ0_-5">
          <mxGeometry relative="1" as="geometry" />
        </mxCell>
        <mxCell id="OvPy3r0spWOH9IC-nQ0_-4" value="Установить&amp;nbsp;&lt;div&gt;кодировку для&amp;nbsp;&lt;/div&gt;&lt;div&gt;отображения&lt;/div&gt;&lt;div&gt;русских символов&lt;/div&gt;" style="shape=parallelogram;perimeter=parallelogramPerimeter;whiteSpace=wrap;html=1;fixedSize=1;" vertex="1" parent="1">
          <mxGeometry x="289" y="350" width="140" height="60" as="geometry" />
        </mxCell>
        <mxCell id="OvPy3r0spWOH9IC-nQ0_-36" value="" style="edgeStyle=orthogonalEdgeStyle;rounded=0;orthogonalLoop=1;jettySize=auto;html=1;" edge="1" parent="1" source="OvPy3r0spWOH9IC-nQ0_-5" target="OvPy3r0spWOH9IC-nQ0_-19">
          <mxGeometry relative="1" as="geometry" />
        </mxCell>
        <mxCell id="OvPy3r0spWOH9IC-nQ0_-5" value="Создать список&lt;div&gt;пользователей&lt;/div&gt;" style="shape=parallelogram;perimeter=parallelogramPerimeter;whiteSpace=wrap;html=1;fixedSize=1;" vertex="1" parent="1">
          <mxGeometry x="299" y="440" width="120" height="60" as="geometry" />
        </mxCell>
        <mxCell id="OvPy3r0spWOH9IC-nQ0_-32" value="" style="edgeStyle=orthogonalEdgeStyle;rounded=0;orthogonalLoop=1;jettySize=auto;html=1;" edge="1" parent="1" source="OvPy3r0spWOH9IC-nQ0_-6" target="OvPy3r0spWOH9IC-nQ0_-4">
          <mxGeometry relative="1" as="geometry" />
        </mxCell>
        <mxCell id="OvPy3r0spWOH9IC-nQ0_-6" value="Создать класс&lt;div&gt;User&lt;/div&gt;" style="shape=parallelogram;perimeter=parallelogramPerimeter;whiteSpace=wrap;html=1;fixedSize=1;" vertex="1" parent="1">
          <mxGeometry x="300" y="260" width="120" height="60" as="geometry" />
        </mxCell>
        <mxCell id="OvPy3r0spWOH9IC-nQ0_-21" value="" style="group" vertex="1" connectable="0" parent="1">
          <mxGeometry x="288.5" y="530" width="141" height="70" as="geometry" />
        </mxCell>
        <mxCell id="OvPy3r0spWOH9IC-nQ0_-13" value="" style="endArrow=none;html=1;rounded=0;" edge="1" parent="OvPy3r0spWOH9IC-nQ0_-21">
          <mxGeometry width="50" height="50" relative="1" as="geometry">
            <mxPoint x="141" y="35" as="sourcePoint" />
            <mxPoint x="105.75" as="targetPoint" />
          </mxGeometry>
        </mxCell>
        <mxCell id="OvPy3r0spWOH9IC-nQ0_-14" value="" style="endArrow=none;html=1;rounded=0;" edge="1" parent="OvPy3r0spWOH9IC-nQ0_-21">
          <mxGeometry width="50" height="50" relative="1" as="geometry">
            <mxPoint x="105.75" y="70" as="sourcePoint" />
            <mxPoint x="141" y="35" as="targetPoint" />
            <Array as="points" />
          </mxGeometry>
        </mxCell>
        <mxCell id="OvPy3r0spWOH9IC-nQ0_-15" value="" style="endArrow=none;html=1;rounded=0;" edge="1" parent="OvPy3r0spWOH9IC-nQ0_-21">
          <mxGeometry width="50" height="50" relative="1" as="geometry">
            <mxPoint x="35.25" y="70" as="sourcePoint" />
            <mxPoint x="35.25" as="targetPoint" />
            <Array as="points">
              <mxPoint y="35" />
            </Array>
          </mxGeometry>
        </mxCell>
        <mxCell id="OvPy3r0spWOH9IC-nQ0_-16" value="" style="endArrow=none;html=1;rounded=0;" edge="1" parent="OvPy3r0spWOH9IC-nQ0_-21">
          <mxGeometry width="50" height="50" relative="1" as="geometry">
            <mxPoint x="35.25" as="sourcePoint" />
            <mxPoint x="105.75" as="targetPoint" />
          </mxGeometry>
        </mxCell>
        <mxCell id="OvPy3r0spWOH9IC-nQ0_-17" value="" style="endArrow=none;html=1;rounded=0;" edge="1" parent="OvPy3r0spWOH9IC-nQ0_-21">
          <mxGeometry width="50" height="50" relative="1" as="geometry">
            <mxPoint x="35.25" y="70" as="sourcePoint" />
            <mxPoint x="105.75" y="70" as="targetPoint" />
          </mxGeometry>
        </mxCell>
        <mxCell id="OvPy3r0spWOH9IC-nQ0_-18" value="&lt;span style=&quot;color: rgba(0, 0, 0, 0); font-family: monospace; font-size: 0px; text-align: start; text-wrap: nowrap;&quot;&gt;скау&lt;/span&gt;" style="text;html=1;align=center;verticalAlign=middle;whiteSpace=wrap;rounded=0;" vertex="1" parent="OvPy3r0spWOH9IC-nQ0_-21">
          <mxGeometry x="35.25" y="8.75" width="52.875" height="43.75" as="geometry" />
        </mxCell>
        <mxCell id="OvPy3r0spWOH9IC-nQ0_-19" value="Цикл ввода данных" style="whiteSpace=wrap;html=1;strokeColor=none;" vertex="1" parent="OvPy3r0spWOH9IC-nQ0_-21">
          <mxGeometry x="26.4375" y="8.75" width="88.125" height="52.5" as="geometry" />
        </mxCell>
        <mxCell id="OvPy3r0spWOH9IC-nQ0_-38" value="" style="edgeStyle=orthogonalEdgeStyle;rounded=0;orthogonalLoop=1;jettySize=auto;html=1;" edge="1" parent="1" source="OvPy3r0spWOH9IC-nQ0_-22" target="OvPy3r0spWOH9IC-nQ0_-30">
          <mxGeometry relative="1" as="geometry" />
        </mxCell>
        <mxCell id="OvPy3r0spWOH9IC-nQ0_-22" value="Поиск пользователей" style="shape=parallelogram;perimeter=parallelogramPerimeter;whiteSpace=wrap;html=1;fixedSize=1;" vertex="1" parent="1">
          <mxGeometry x="299" y="640" width="120" height="60" as="geometry" />
        </mxCell>
        <mxCell id="OvPy3r0spWOH9IC-nQ0_-45" value="" style="edgeStyle=orthogonalEdgeStyle;rounded=0;orthogonalLoop=1;jettySize=auto;html=1;" edge="1" parent="1" source="OvPy3r0spWOH9IC-nQ0_-26" target="OvPy3r0spWOH9IC-nQ0_-27">
          <mxGeometry relative="1" as="geometry" />
        </mxCell>
        <mxCell id="OvPy3r0spWOH9IC-nQ0_-46" value="" style="edgeStyle=orthogonalEdgeStyle;rounded=0;orthogonalLoop=1;jettySize=auto;html=1;" edge="1" parent="1" source="OvPy3r0spWOH9IC-nQ0_-26" target="OvPy3r0spWOH9IC-nQ0_-29">
          <mxGeometry relative="1" as="geometry" />
        </mxCell>
        <mxCell id="OvPy3r0spWOH9IC-nQ0_-26" value="if (!user.IsPremium)" style="rhombus;whiteSpace=wrap;html=1;" vertex="1" parent="1">
          <mxGeometry x="297.5" y="870" width="125" height="80" as="geometry" />
        </mxCell>
        <mxCell id="OvPy3r0spWOH9IC-nQ0_-27" value="Конец" style="ellipse;whiteSpace=wrap;html=1;" vertex="1" parent="1">
          <mxGeometry x="300" y="1060" width="120" height="80" as="geometry" />
        </mxCell>
        <mxCell id="OvPy3r0spWOH9IC-nQ0_-29" value="Показать&lt;div&gt;рекламу&lt;/div&gt;" style="shape=parallelogram;perimeter=parallelogramPerimeter;whiteSpace=wrap;html=1;fixedSize=1;" vertex="1" parent="1">
          <mxGeometry x="140" y="880" width="120" height="60" as="geometry" />
        </mxCell>
        <mxCell id="OvPy3r0spWOH9IC-nQ0_-42" value="" style="edgeStyle=orthogonalEdgeStyle;rounded=0;orthogonalLoop=1;jettySize=auto;html=1;" edge="1" parent="1" source="OvPy3r0spWOH9IC-nQ0_-30" target="OvPy3r0spWOH9IC-nQ0_-26">
          <mxGeometry relative="1" as="geometry" />
        </mxCell>
        <mxCell id="OvPy3r0spWOH9IC-nQ0_-30" value="if (u.Login == login&amp;nbsp;&lt;div&gt;&amp;amp;&amp;amp; u.Name == name)&lt;/div&gt;" style="rhombus;whiteSpace=wrap;html=1;" vertex="1" parent="1">
          <mxGeometry x="267.75" y="730" width="182.5" height="100" as="geometry" />
        </mxCell>
        <mxCell id="OvPy3r0spWOH9IC-nQ0_-37" value="" style="edgeStyle=orthogonalEdgeStyle;rounded=0;orthogonalLoop=1;jettySize=auto;html=1;" edge="1" parent="1" source="OvPy3r0spWOH9IC-nQ0_-19" target="OvPy3r0spWOH9IC-nQ0_-22">
          <mxGeometry relative="1" as="geometry" />
        </mxCell>
        <mxCell id="OvPy3r0spWOH9IC-nQ0_-40" value="" style="endArrow=none;html=1;rounded=0;" edge="1" parent="1">
          <mxGeometry width="50" height="50" relative="1" as="geometry">
            <mxPoint x="450.25" y="780" as="sourcePoint" />
            <mxPoint x="500.25" y="730" as="targetPoint" />
          </mxGeometry>
        </mxCell>
        <mxCell id="OvPy3r0spWOH9IC-nQ0_-41" value="" style="endArrow=block;html=1;rounded=0;endFill=1;" edge="1" parent="1">
          <mxGeometry width="50" height="50" relative="1" as="geometry">
            <mxPoint x="500" y="730" as="sourcePoint" />
            <mxPoint x="440" y="570" as="targetPoint" />
            <Array as="points">
              <mxPoint x="500" y="660" />
              <mxPoint x="500" y="570" />
            </Array>
          </mxGeometry>
        </mxCell>
        <mxCell id="OvPy3r0spWOH9IC-nQ0_-43" value="true" style="text;html=1;align=center;verticalAlign=middle;whiteSpace=wrap;rounded=0;" vertex="1" parent="1">
          <mxGeometry x="297.5" y="830" width="60" height="30" as="geometry" />
        </mxCell>
        <mxCell id="OvPy3r0spWOH9IC-nQ0_-44" value="false" style="text;html=1;align=center;verticalAlign=middle;whiteSpace=wrap;rounded=0;" vertex="1" parent="1">
          <mxGeometry x="500" y="650" width="60" height="30" as="geometry" />
        </mxCell>
        <mxCell id="OvPy3r0spWOH9IC-nQ0_-47" value="" style="endArrow=classic;html=1;rounded=0;exitX=0.5;exitY=1;exitDx=0;exitDy=0;" edge="1" parent="1" source="OvPy3r0spWOH9IC-nQ0_-29" target="OvPy3r0spWOH9IC-nQ0_-27">
          <mxGeometry width="50" height="50" relative="1" as="geometry">
            <mxPoint x="330" y="860" as="sourcePoint" />
            <mxPoint x="380" y="810" as="targetPoint" />
          </mxGeometry>
        </mxCell>
        <mxCell id="OvPy3r0spWOH9IC-nQ0_-48" value="true" style="text;html=1;align=center;verticalAlign=middle;whiteSpace=wrap;rounded=0;" vertex="1" parent="1">
          <mxGeometry x="357.5" y="970" width="60" height="30" as="geometry" />
        </mxCell>
        <mxCell id="OvPy3r0spWOH9IC-nQ0_-49" value="false" style="text;html=1;align=center;verticalAlign=middle;whiteSpace=wrap;rounded=0;" vertex="1" parent="1">
          <mxGeometry x="250" y="880" width="60" height="30" as="geometry" />
        </mxCell>
      </root>
    </mxGraphModel>
  </diagram>
</mxfile>
